<?xml version="1.0" encoding="UTF-8" standalone="no"?>
<!DOCTYPE svg PUBLIC "-//W3C//DTD SVG 1.1//EN" "http://www.w3.org/Graphics/SVG/1.1/DTD/svg11.dtd">
<svg width="100%" height="100%" viewBox="0 0 139 138" version="1.1" xmlns="http://www.w3.org/2000/svg" xmlns:xlink="http://www.w3.org/1999/xlink" xml:space="preserve" xmlns:serif="http://www.serif.com/" style="fill-rule:evenodd;clip-rule:evenodd;stroke-linejoin:round;stroke-miterlimit:2;">
    <g transform="matrix(0.587761,0,0,0.587761,28.4457,28.4445)">
        <path d="M69.003,10.542C71.852,10.533 74.646,11.321 77.07,12.819C79.494,14.316 81.45,16.462 82.717,19.013L125.842,105.263C127.012,107.601 127.564,110.199 127.447,112.811C127.33,115.422 126.548,117.961 125.174,120.185C123.799,122.409 121.88,124.244 119.596,125.517C117.313,126.79 114.742,127.459 112.128,127.458L25.878,127.458C23.264,127.459 20.693,126.79 18.41,125.517C16.126,124.244 14.206,122.409 12.832,120.185C11.458,117.961 10.676,115.422 10.559,112.811C10.442,110.199 10.994,107.601 12.164,105.263L55.289,19.013C56.556,16.462 58.512,14.316 60.936,12.819C63.36,11.321 66.154,10.533 69.003,10.542ZM69.003,0C64.198,-0.001 59.488,1.337 55.4,3.862C51.313,6.388 48.009,10.001 45.859,14.298L2.734,100.548C0.761,104.493 -0.172,108.878 0.026,113.285C0.224,117.691 1.545,121.975 3.864,125.727C6.183,129.48 9.423,132.577 13.275,134.725C17.129,136.873 21.467,138.001 25.878,138L112.128,138C116.539,138.001 120.877,136.873 124.73,134.725C128.583,132.577 131.823,129.48 134.142,125.727C136.461,121.975 137.782,117.691 137.98,113.285C138.178,108.878 137.245,104.493 135.272,100.548L92.147,14.298C89.997,10.001 86.693,6.388 82.606,3.862C78.518,1.337 73.808,-0.001 69.003,0Z" style="fill:rgb(112,212,75);fill-rule:nonzero;"/>
    </g>
</svg>
